<?xml version="1.0" standalone="no"?>
<!DOCTYPE svg PUBLIC "-//W3C//DTD SVG 20010904//EN"
 "http://www.w3.org/TR/2001/REC-SVG-20010904/DTD/svg10.dtd">
<svg version="1.0" xmlns="http://www.w3.org/2000/svg"
 width="896.000000pt" height="896.000000pt" viewBox="0 0 896.000000 896.000000"
 preserveAspectRatio="xMidYMid meet">
<metadata>
Created by potrace 1.14, written by Peter Selinger 2001-2017
</metadata>
<g transform="translate(0.000000,896.000000) scale(0.100000,-0.100000)"
fill="#000000" stroke="none">
<path d="M3539 7745 c-14 -7 -31 -26 -38 -41 -22 -50 -69 -246 -91 -389 -101
-628 212 -1089 865 -1274 157 -45 366 -74 611 -86 l121 -6 42 46 c43 46 91
135 91 168 0 9 -18 33 -40 53 l-40 36 18 30 c26 45 113 123 168 151 84 42 207
59 280 38 17 -5 87 -50 155 -101 140 -105 261 -186 337 -224 l52 -26 0 52 c0
72 -25 240 -46 308 -30 102 -90 195 -245 386 l-58 71 6 69 5 69 -44 60 c-74
100 -238 273 -377 399 -73 66 -140 125 -150 132 -37 26 -214 55 -372 61 l-156
6 -85 -47 -85 -46 -412 60 c-226 33 -428 60 -449 60 -20 -1 -49 -7 -63 -15z
m1541 -704 c60 -55 81 -81 70 -84 -24 -8 -402 -58 -407 -54 -4 5 237 217 246
217 4 0 45 -36 91 -79z"/>
<path d="M3371 5978 c-57 -271 -126 -596 -152 -722 -27 -125 -49 -236 -49
-247 0 -13 10 -20 38 -24 20 -4 50 -9 65 -12 21 -3 123 27 354 108 289 100
328 111 347 99 60 -37 866 -613 866 -618 -1 -4 -74 -52 -163 -107 -89 -56
-162 -106 -162 -111 0 -13 490 -424 505 -424 6 0 10 29 10 69 0 62 7 85 80
265 l80 197 -6 166 -7 165 -163 264 -164 265 31 112 c29 103 31 119 25 212 -4
55 -9 114 -12 132 l-6 31 -76 6 c-309 23 -424 42 -597 100 -288 97 -535 280
-698 518 -17 27 -35 48 -38 48 -3 0 -52 -222 -108 -492z"/>
<path d="M5387 6360 c-57 -15 -90 -35 -131 -80 -44 -49 -46 -45 69 -135 252
-197 532 -328 827 -387 160 -32 444 -32 598 0 168 36 267 94 247 146 -6 14
-35 16 -229 15 -190 -2 -238 1 -325 19 -247 50 -497 160 -745 325 -141 94
-150 98 -210 102 -35 2 -80 0 -101 -5z"/>
<path d="M5604 5828 c21 -104 18 -194 -18 -418 -48 -309 -59 -414 -54 -533 5
-126 29 -186 98 -251 56 -53 109 -70 197 -64 97 6 118 41 94 153 -6 27 -9 30
-43 27 -20 -2 -47 2 -60 9 -85 45 -66 126 128 555 76 166 118 273 126 314 12
72 10 74 -61 85 -69 10 -215 62 -314 111 -49 24 -91 44 -94 44 -3 0 -2 -15 1
-32z"/>
<path d="M3940 4859 l-1 -234 -123 -295 -124 -295 37 -70 36 -70 289 -3 c161
-1 294 2 299 7 5 5 -5 34 -23 71 l-32 63 72 354 c40 196 68 358 63 362 -11 11
-432 304 -465 326 l-28 17 0 -233z"/>
<path d="M266 3188 c-7 -13 -70 -298 -140 -635 l-126 -612 0 -151 0 -150 100
0 c92 0 101 2 114 23 7 12 39 148 71 302 31 154 61 301 67 328 l10 47 233 0
c174 0 235 3 243 13 14 17 42 146 35 163 -4 11 -48 14 -232 14 -125 0 -230 2
-232 5 -5 4 9 79 72 383 l22 102 287 0 c226 0 290 3 299 13 14 18 43 146 37
163 -4 12 -80 14 -425 14 l-421 0 -14 -22z"/>
<path d="M4371 3196 c-17 -20 -326 -1518 -318 -1540 6 -14 38 -16 315 -16 346
0 373 4 507 69 203 100 324 287 313 484 -7 135 -64 211 -189 253 l-62 21 58
32 c149 84 233 239 223 410 -8 139 -85 221 -258 276 -79 26 -569 35 -589 11z
m477 -198 c117 -58 120 -226 7 -364 -56 -67 -128 -98 -247 -102 -88 -4 -98 -3
-98 13 0 18 87 448 96 474 8 23 183 8 242 -21z m-45 -678 c97 -46 129 -145 89
-277 -35 -113 -110 -181 -231 -209 -62 -15 -301 -19 -301 -5 0 12 99 493 105
510 4 11 33 13 148 9 122 -4 149 -8 190 -28z"/>
<path d="M1318 3183 c-24 -27 -61 -212 -47 -229 18 -22 222 -20 240 2 21 26
60 216 47 231 -7 9 -44 13 -118 13 -89 0 -109 -3 -122 -17z"/>
<path d="M8295 3127 l-140 -72 -144 -698 c-114 -549 -142 -700 -132 -710 13
-13 154 -22 205 -13 21 4 37 15 43 29 5 12 29 120 54 240 24 119 46 217 49
217 3 0 65 -103 138 -229 74 -127 141 -236 149 -243 11 -9 55 -14 130 -16 117
-4 163 1 163 18 0 5 -81 136 -180 291 -144 225 -178 285 -168 294 7 6 122 114
256 239 224 211 242 231 242 262 l0 34 -93 0 c-69 0 -99 -4 -117 -16 -14 -9
-130 -121 -259 -248 -170 -169 -232 -224 -227 -205 3 15 44 213 91 440 46 228
87 424 90 437 3 12 2 22 -2 22 -5 -1 -71 -33 -148 -73z"/>
<path d="M3808 3041 c-69 -36 -130 -69 -133 -73 -4 -4 -13 -40 -21 -80 -24
-130 -14 -118 -99 -118 -85 0 -85 -1 -104 -89 -15 -72 -7 -81 75 -81 35 0 64
-4 64 -9 0 -5 -29 -150 -64 -322 -35 -173 -67 -335 -71 -362 -10 -73 10 -152
52 -197 49 -55 105 -71 234 -68 l104 3 13 39 c7 21 13 60 15 85 l2 46 -54 5
c-68 7 -91 32 -91 99 0 36 87 493 125 659 5 21 11 22 89 22 67 0 86 3 98 18
17 20 42 127 33 142 -3 5 -44 10 -91 10 -46 0 -84 4 -84 8 0 5 14 76 30 157
34 168 35 176 18 174 -7 -1 -70 -32 -140 -68z"/>
<path d="M2773 2785 c-189 -53 -319 -202 -331 -377 -6 -103 10 -153 67 -208
42 -41 61 -50 209 -99 216 -71 248 -101 208 -194 -32 -76 -103 -107 -246 -107
-78 0 -118 6 -201 30 l-104 30 -43 -43 c-70 -69 -65 -104 20 -148 102 -52 357
-71 485 -37 172 47 304 156 349 290 27 78 25 200 -4 255 -36 69 -78 91 -310
163 -82 25 -140 49 -152 62 -53 58 6 174 104 203 88 26 145 20 344 -37 l44
-13 43 50 c24 28 44 60 45 72 0 29 -52 64 -140 94 -84 29 -305 37 -387 14z"/>
<path d="M5796 2785 c-229 -58 -383 -257 -453 -585 -27 -128 -24 -306 7 -385
52 -135 170 -205 344 -205 146 0 269 47 373 144 l59 55 12 -46 c24 -87 94
-127 215 -121 56 3 63 5 75 31 7 15 14 53 15 84 2 53 0 57 -23 63 -14 3 -31
18 -39 32 -14 24 -8 61 73 463 57 279 85 440 79 446 -5 5 -56 8 -114 7 l-104
-3 -30 -61 -30 -62 -45 51 c-66 74 -129 100 -255 104 -65 1 -121 -3 -159 -12z
m283 -197 c90 -45 122 -139 102 -296 -23 -175 -74 -311 -147 -392 -20 -22 -66
-54 -102 -72 -59 -29 -76 -33 -152 -33 -103 0 -140 17 -171 77 -49 96 -7 405
79 573 50 100 99 145 178 164 59 15 161 5 213 -21z"/>
<path d="M7312 2789 c-67 -13 -139 -58 -202 -126 l-58 -63 -10 43 c-16 63 -45
94 -104 112 -68 20 -161 20 -178 0 -15 -18 -40 -133 -33 -152 3 -7 15 -13 28
-13 31 0 50 -26 49 -69 0 -20 -37 -219 -84 -442 -46 -223 -80 -414 -77 -423 5
-13 24 -16 120 -16 89 0 117 3 127 15 7 8 43 161 80 341 81 383 91 419 145
498 52 79 119 116 207 116 76 0 111 -19 137 -73 32 -66 27 -145 -24 -398 -61
-301 -59 -375 11 -441 41 -38 105 -58 185 -58 79 0 79 0 99 99 11 58 3 81 -31
81 -24 0 -39 30 -39 78 0 22 23 151 51 288 57 280 59 333 17 425 -44 96 -126
157 -243 178 -67 12 -111 13 -173 0z"/>
<path d="M2206 2774 c-55 -17 -107 -48 -160 -95 -32 -27 -36 -29 -36 -11 0 55
-74 96 -193 107 -91 9 -110 -4 -125 -81 -18 -86 -16 -94 18 -101 35 -6 50 -28
50 -72 0 -17 -41 -218 -90 -447 -71 -325 -88 -419 -79 -430 8 -10 39 -14 119
-14 89 0 109 3 122 18 9 10 48 168 93 372 42 195 86 375 97 400 42 98 110 139
229 140 49 0 80 5 87 13 12 15 52 198 46 209 -8 13 -126 8 -178 -8z"/>
<path d="M1232 2753 c-16 -15 -38 -100 -111 -440 -109 -503 -113 -561 -48
-631 43 -47 96 -66 182 -66 77 -1 80 0 93 27 7 15 14 53 15 85 2 52 0 57 -20
60 -33 5 -46 29 -45 82 1 38 75 400 172 833 13 58 -2 67 -120 67 -79 0 -102
-3 -118 -17z"/>
<path d="M2942 1188 c-5 -7 -13 -28 -17 -45 l-7 -33 46 0 c43 0 45 1 52 34 3
19 3 39 -1 45 -9 15 -60 14 -73 -1z"/>
<path d="M2596 1175 c-58 -21 -88 -46 -113 -95 -49 -95 -25 -145 93 -202 97
-46 117 -72 88 -115 -29 -45 -78 -58 -169 -44 -72 10 -81 9 -92 -6 -20 -26
-16 -33 25 -50 49 -22 174 -22 223 0 83 37 129 116 109 188 -13 47 -53 83
-120 109 -64 25 -90 46 -90 72 0 72 83 104 200 77 38 -9 46 -8 57 7 22 31 14
43 -39 59 -63 18 -120 19 -172 0z"/>
<path d="M4910 1184 c-61 -25 -83 -41 -105 -79 -35 -59 -33 -106 5 -139 l31
-25 -41 -21 c-73 -37 -115 -135 -86 -204 19 -45 52 -66 118 -73 100 -10 187
31 226 107 34 67 30 114 -14 158 -32 32 -34 36 -17 46 38 21 72 64 79 101 15
80 -30 127 -123 132 -32 1 -65 0 -73 -3z m81 -74 c13 -8 19 -21 19 -46 0 -71
-90 -114 -125 -60 -20 31 -11 70 22 96 29 22 55 25 84 10z m-18 -242 c18 -24
19 -32 9 -67 -24 -79 -109 -116 -159 -69 -59 56 4 172 91 166 29 -2 44 -10 59
-30z"/>
<path d="M5338 1180 c-57 -17 -97 -51 -123 -104 -35 -71 -42 -142 -21 -189 34
-70 150 -84 214 -25 l24 23 -7 -25 c-36 -127 -100 -169 -208 -139 -33 9 -41 8
-53 -8 -20 -27 -17 -38 13 -52 86 -39 186 -19 248 51 88 97 134 314 87 408
-28 58 -100 82 -174 60z m86 -75 c25 -25 28 -53 12 -108 -19 -67 -54 -101
-102 -101 -49 0 -67 25 -60 82 3 24 13 59 22 78 27 56 95 82 128 49z"/>
<path d="M4550 1137 c-75 -34 -97 -49 -104 -70 -5 -15 -7 -29 -4 -32 3 -3 28
3 57 14 28 12 51 17 51 13 0 -4 -18 -92 -40 -197 -22 -104 -40 -196 -40 -202
0 -9 16 -13 45 -13 25 0 45 1 45 3 0 7 101 494 106 510 8 25 -10 21 -116 -26z"/>
<path d="M5723 999 c-87 -99 -159 -189 -161 -200 -3 -18 4 -19 108 -19 l112 0
-7 -37 c-4 -21 -9 -50 -12 -65 -5 -27 -4 -28 41 -28 42 0 46 2 52 28 22 100
24 102 53 102 21 0 30 6 35 23 9 35 8 37 -24 37 -26 0 -30 3 -25 23 28 122 62
303 58 309 -2 5 -19 8 -38 8 -31 0 -45 -14 -192 -181z m93 -64 c-9 -42 -18
-81 -22 -86 -5 -9 -114 -13 -114 -4 0 9 143 175 148 171 2 -3 -3 -39 -12 -81z"/>
<path d="M3248 1011 l-33 -29 -18 24 c-13 17 -28 24 -52 24 -29 0 -36 -4 -41
-26 -4 -17 -1 -29 10 -37 16 -12 15 -23 -14 -156 -16 -79 -30 -148 -30 -153 0
-11 77 -11 84 0 3 5 17 61 31 126 34 161 55 196 117 196 52 0 60 -49 32 -185
-12 -59 -13 -84 -5 -102 11 -24 47 -43 81 -43 25 0 36 46 15 66 -8 9 -15 16
-15 18 0 1 9 44 21 96 11 54 18 109 14 127 -15 81 -131 112 -197 54z"/>
<path d="M3642 1019 c-72 -36 -122 -135 -122 -241 0 -95 42 -133 144 -132 70
0 129 25 124 52 -3 12 -12 16 -33 15 -107 -8 -107 -8 -127 17 -38 47 -4 193
54 234 26 19 77 21 112 5 20 -9 29 -9 41 1 66 55 -98 96 -193 49z"/>
<path d="M4005 1024 c-77 -42 -116 -114 -123 -226 -5 -91 8 -121 66 -145 69
-29 207 -1 207 42 0 16 -6 20 -30 18 -122 -9 -126 -8 -141 11 -8 11 -14 35
-14 53 l0 33 90 0 c103 0 135 11 150 53 19 56 13 104 -19 139 -25 29 -35 32
-92 35 -45 2 -73 -1 -94 -13z m109 -60 c21 -21 21 -80 0 -88 -19 -7 -134 -8
-134 -1 0 16 42 85 57 94 26 15 59 13 77 -5z"/>
<path d="M2872 875 c-23 -114 -29 -162 -22 -180 10 -25 45 -45 80 -45 26 0 37
44 17 64 -16 16 -14 32 27 224 9 40 16 78 16 83 0 5 -20 9 -44 9 l-43 0 -31
-155z"/>
</g>
</svg>
