<svg width="20" height="20" viewBox="0 0 20 20" fill="none" xmlns="http://www.w3.org/2000/svg">
<path d="M7.43512 4.10731C5.39512 6.39731 3.99512 9.68731 3.86512 9.99731L0.245117 8.44731L5.05512 3.63731L7.43512 4.10731ZM9.41512 14.7573C9.41512 14.7573 13.1551 13.2073 15.3051 11.0573C20.7051 5.65731 19.8051 1.43731 19.5151 0.487309C18.5651 0.187309 14.3451 -0.702691 8.94512 4.69731C6.79512 6.84731 5.24512 10.5873 5.24512 10.5873L9.41512 14.7573ZM15.8951 12.5673C13.6051 14.6073 10.3151 16.0073 10.0051 16.1373L11.5551 19.7573L16.3651 14.9473L15.8951 12.5673ZM7.24512 15.7573C7.24512 16.5873 6.90512 17.3373 6.36512 17.8773C5.18512 19.0573 0.245117 19.7573 0.245117 19.7573C0.245117 19.7573 0.945117 14.8173 2.12512 13.6373C2.54391 13.2163 3.07837 12.9293 3.66062 12.8126C4.24286 12.696 4.84664 12.755 5.39529 12.9822C5.94393 13.2094 6.4127 13.5944 6.74205 14.0885C7.07141 14.5827 7.24651 15.1635 7.24512 15.7573ZM11.2451 6.75731C11.2451 5.65731 12.1451 4.75731 13.2451 4.75731C14.3451 4.75731 15.2451 5.65731 15.2451 6.75731C15.2451 7.85731 14.3451 8.75731 13.2451 8.75731C12.1451 8.75731 11.2451 7.85731 11.2451 6.75731Z" fill="#022E64"/>
</svg>
